<?xml version="1.0"?>
<svg width="652" height="652" xmlns="http://www.w3.org/2000/svg" xmlns:svg="http://www.w3.org/2000/svg" enable-background="new -153 -46 652 652" version="1.1" xml:space="preserve">
 <style type="text/css">.st0{fill:url(#SVGID_1_);}
	.st1{fill:#265ED4;}
	.st2{fill:url(#SVGID_2_);}
	.st3{fill:url(#SVGID_3_);}
	.st4{fill:url(#SVGID_4_);}</style>
 <g class="layer">
  <title>Layer 1</title>
  <linearGradient gradientTransform="translate(162 36) matrix(1 0 0 1 0 -528)" gradientUnits="userSpaceOnUse" id="SVGID_1_" x1="-132.66" x2="-100.87" y1="863.72" y2="774.43">
   <stop offset="0.18" stop-color="#00D5FF"/>
   <stop offset="0.31" stop-color="#06C1F4"/>
   <stop offset="0.57" stop-color="#148BD7"/>
   <stop offset="0.9" stop-color="#1A4CAE"/>
  </linearGradient>
  <linearGradient gradientTransform="translate(162 36) matrix(1 0 0 1 0 -528)" gradientUnits="userSpaceOnUse" id="SVGID_2_" x1="-79.13" x2="-152.15" y1="800.51" y2="853.89">
   <stop offset="0.38" stop-color="#00D5FF"/>
   <stop offset="0.47" stop-color="#02CFFD"/>
   <stop offset="0.59" stop-color="#08BDF6"/>
   <stop offset="0.73" stop-color="#129FEB"/>
   <stop offset="0.89" stop-color="#2077DC"/>
   <stop offset="1" stop-color="#2B55CF"/>
  </linearGradient>
  <radialGradient cx="-478.72" cy="155.04" gradientTransform="translate(162 36) matrix(78.3897 0 0 78.3942 37476.7 -11893.6)" gradientUnits="userSpaceOnUse" id="SVGID_3_" r="0.22">
   <stop offset="0" stop-color="#FFD215"/>
   <stop offset="1" stop-color="#FF9B00"/>
  </radialGradient>
  <linearGradient gradientTransform="translate(162 36) matrix(1 0 0 1 0 -528)" gradientUnits="userSpaceOnUse" id="SVGID_4_" x1="-0.59" x2="-21.9" y1="830.68" y2="830.64">
   <stop offset="0" stop-color="#2B55CF"/>
   <stop offset="1" stop-color="#1A4CAE"/>
  </linearGradient>
  <g id="svg_27">
   <path class="st0" d="m178.31,132.65l-58.57,0l-118.04,304.56l55.41,0c6.31,0 10.36,-2.25 14.42,-4.96c4.05,-3.15 7.21,-6.31 8.11,-10.36l64.43,-183.81c2.25,-4.96 4.05,-11.26 7.21,-18.47c2.7,-7.66 27.03,-86.95 27.03,-86.95z" id="svg_2"/>
   <path class="st1" d="m334.19,258.8l0,178.41l70.73,0l0,-216.25c-13.52,0.9 -26.58,2.25 -37.84,3.15l-3.15,0c-8.11,0.9 -16.22,4.96 -21.63,11.26c-4.96,7.21 -8.11,15.32 -8.11,23.43l0,0z" id="svg_3"/>
   <path class="st2" d="m309.86,233.12c-4.05,0 -8.11,0 -16.22,2.25c-121.19,27.48 -234.72,107.68 -291.49,202.29l60.37,0c7.21,0 14.42,-2.25 17.57,-8.11c73.89,-105.87 171.2,-163.09 215.35,-185.62c13.07,-6.31 13.07,-9.46 14.42,-10.81z" id="svg_4"/>
   <path class="st1" d="m181.46,132.65l-61.72,0c0,0 12.16,4.05 17.57,15.32l94.16,273.92c2.25,4.05 4.96,8.11 8.11,11.26c4.05,3.15 8.11,4.05 14.42,4.05l55.41,0l-113.98,-294.64c-0.9,-3.15 -3.15,-4.96 -6.31,-7.21c-1.35,-1.35 -4.51,-2.7 -7.66,-2.7l0,0z" id="svg_5"/>
   <path class="st3" d="m404.92,220.95l0,-88.3l-70.73,0l0,87.4c0,0.9 0,2.25 0.9,3.15c0,0.9 0.9,2.25 2.25,2.25c0.9,0.9 2.25,0.9 3.15,0.9c0.9,0 2.25,0 3.15,0c19.37,-2.25 44.15,-4.51 61.27,-5.41z" id="svg_6"/>
   <path class="st1" d="m529.27,386.3l0,-2.25l57.67,-58.57c8.11,-8.11 15.32,-16.22 22.53,-24.78s13.52,-16.22 18.47,-24.78s9.01,-17.57 13.52,-26.58c3.15,-10.36 4.96,-20.72 4.96,-30.64c0,-13.52 -2.25,-24.78 -7.21,-36.04c-4.05,-10.36 -11.26,-20.72 -19.37,-27.48c-8.11,-8.11 -18.47,-14.42 -30.64,-18.47c-12.16,-4.96 -25.68,-7.21 -41,-7.21c-13.52,0 -26.58,2.25 -39.2,4.96c-12.16,3.15 -22.53,9.01 -32.89,17.57c-9.01,8.11 -17.57,17.57 -23.43,27.48c-6.31,11.26 -10.36,23.43 -12.16,37.84c11.26,-0.9 29.73,-0.9 44.15,-0.9c10.36,0 19.37,-6.31 24.78,-15.32l0,0c3.15,-4.05 6.31,-8.11 10.36,-11.26c6.31,-4.96 14.42,-7.21 24.78,-7.21c12.16,0 20.72,3.15 26.58,9.01c6.31,6.31 8.11,15.32 8.11,27.48c0,7.21 -0.9,14.42 -3.15,20.72c-2.25,7.21 -4.96,13.52 -8.11,19.37c-4.05,7.21 -8.11,14.42 -13.52,20.72c-6.31,7.21 -12.16,14.42 -19.37,21.63l-88.3,88.3c-4.05,3.15 -7.21,7.21 -9.01,12.16c-2.25,4.05 -2.25,8.11 -2.25,13.52l0,20.72l58.57,0l35.14,-50.01z" id="svg_7"/>
   <path class="st4" d="m643.25,384.95c-4.05,-4.05 -9.01,-6.31 -16.22,-6.31l-12.61,0l0,0l-44.15,0l-0.9,0c-2.25,0 -4.05,0 -6.31,0c-4.96,0 -9.01,0.9 -14.42,2.25c-0.9,0 -0.9,0 -2.25,0c-3.15,0 -6.31,0.9 -8.11,0.9c-4.96,0.9 -10.36,0.9 -10.36,0.9c-10.36,10.36 -22.53,22.53 -29.73,29.73c-4.05,4.05 -6.31,10.36 -6.31,15.32l0,9.01l155.88,0l0,-37.84c1.35,-5.41 -0.45,-10.81 -4.51,-13.97l0,0z" id="svg_8"/>
  </g>
 </g>
</svg>