<svg id="svg" version="1.1" xmlns="http://www.w3.org/2000/svg" xmlns:xlink="http://www.w3.org/1999/xlink" width="400" height="387.3684210526316" viewBox="0, 0, 400,387.3684210526316"><g id="svgg"><path id="path3" d="M107.623 154.134 C 107.481 154.276,107.364 195.003,107.364 244.638 L 107.364 334.884 110.078 334.884 C 112.532 334.884,112.791 334.810,112.791 334.109 C 112.791 333.391,113.049 333.333,116.279 333.333 C 119.121 333.333,119.767 333.226,119.767 332.752 C 119.767 332.287,120.345 332.171,122.643 332.171 C 125.856 332.171,126.744 331.952,126.744 331.160 C 126.744 330.739,127.509 330.620,130.233 330.620 C 132.933 330.620,133.721 330.500,133.721 330.087 C 133.721 329.690,134.571 329.510,137.059 329.379 C 139.653 329.243,140.479 329.059,140.761 328.556 C 141.041 328.055,141.688 327.907,143.599 327.907 C 146.273 327.907,148.254 327.368,147.869 326.745 C 147.716 326.498,148.755 326.357,150.725 326.357 C 152.960 326.357,153.982 326.195,154.402 325.775 C 154.795 325.382,155.778 325.192,157.434 325.189 C 160.412 325.182,161.628 324.890,161.628 324.180 C 161.628 323.771,162.315 323.643,164.516 323.643 C 166.802 323.643,167.478 323.510,167.763 323.001 C 168.037 322.510,168.877 322.314,171.303 322.174 C 173.499 322.047,174.545 321.826,174.686 321.460 C 174.798 321.169,175.132 320.930,175.429 320.930 C 175.889 320.930,175.969 309.750,175.969 245.736 L 175.969 170.543 174.466 170.543 C 173.603 170.543,172.758 170.295,172.481 169.961 C 172.156 169.570,171.282 169.380,169.806 169.380 C 168.094 169.380,167.469 169.210,166.950 168.605 C 166.423 167.989,165.807 167.829,163.957 167.829 C 162.676 167.829,161.628 167.683,161.628 167.504 C 161.628 166.924,159.696 166.279,157.960 166.279 C 156.994 166.279,156.200 166.081,156.112 165.818 C 156.021 165.545,154.880 165.287,153.319 165.188 C 151.417 165.067,150.476 164.817,149.952 164.293 C 149.428 163.769,148.664 163.566,147.220 163.566 C 145.962 163.566,144.971 163.344,144.558 162.970 C 144.142 162.594,143.108 162.366,141.742 162.349 C 140.137 162.330,139.412 162.135,138.917 161.588 C 138.419 161.038,137.722 160.853,136.144 160.853 C 134.624 160.853,133.763 160.637,133.052 160.078 C 132.368 159.540,131.479 159.302,130.153 159.302 C 128.969 159.302,128.018 159.081,127.658 158.721 C 127.284 158.347,126.326 158.140,124.972 158.140 C 123.385 158.140,122.678 157.949,122.093 157.364 C 121.490 156.761,120.801 156.589,118.992 156.589 C 117.713 156.589,116.667 156.443,116.667 156.264 C 116.667 155.663,114.708 155.039,112.820 155.039 C 111.629 155.039,110.772 154.827,110.465 154.457 C 109.978 153.870,108.100 153.657,107.623 154.134 " stroke="none" fill="#3c8cfc" fill-rule="evenodd"></path><path id="path4" d="" stroke="none" fill="#5ce8d8" fill-rule="evenodd"></path><path id="path0" d="M324.812 172.578 C 324.817 267.495,324.948 345.330,325.104 345.544 C 325.701 346.363,327.519 346.237,327.519 345.377 C 327.519 344.636,327.744 344.574,330.414 344.574 C 332.661 344.574,333.265 344.458,333.112 344.059 C 332.965 343.678,333.447 343.519,334.965 343.446 C 338.410 343.279,338.601 343.239,339.301 342.539 C 339.763 342.075,340.644 341.845,342.082 341.812 C 344.751 341.751,344.832 341.738,345.220 341.314 C 345.411 341.105,345.306 341.088,344.961 341.274 C 344.511 341.516,344.480 341.478,344.826 341.103 C 345.071 340.837,346.249 340.602,347.442 340.579 C 348.636 340.557,349.612 340.389,349.612 340.205 C 349.612 340.021,349.961 339.981,350.388 340.116 C 350.814 340.252,351.163 340.189,351.163 339.977 C 351.163 339.765,350.858 339.524,350.484 339.441 C 350.111 339.358,351.013 339.255,352.487 339.213 C 353.961 339.170,355.400 338.942,355.685 338.706 C 356.066 338.390,356.202 338.397,356.202 338.735 C 356.202 338.987,356.379 339.083,356.595 338.950 C 356.812 338.816,356.896 338.556,356.783 338.372 C 356.441 337.819,357.088 337.647,359.846 337.558 C 361.621 337.500,362.540 337.304,362.674 336.953 C 362.797 336.634,363.498 336.434,364.499 336.434 C 365.393 336.434,366.359 336.216,366.646 335.950 C 367.064 335.562,367.113 335.562,366.894 335.950 C 366.578 336.509,367.008 336.574,367.782 336.084 C 368.076 335.898,368.197 335.552,368.050 335.315 C 367.866 335.017,368.543 334.870,370.229 334.839 C 373.778 334.774,373.849 334.757,373.723 334.012 C 373.625 333.426,373.939 333.333,376.018 333.333 C 377.550 333.333,378.650 333.133,379.039 332.784 C 379.406 332.455,380.737 332.184,382.364 332.106 C 384.666 331.996,385.069 331.874,385.024 331.298 C 384.977 330.712,385.337 330.620,387.676 330.620 C 389.967 330.620,390.411 330.512,390.567 329.915 C 390.722 329.324,391.087 329.229,392.813 329.328 C 394.378 329.418,395.002 329.290,395.403 328.796 C 395.855 328.238,395.848 328.188,395.349 328.443 C 395.029 328.607,395.161 328.394,395.642 327.970 C 396.248 327.435,396.367 327.138,396.029 327.002 C 395.642 326.846,395.642 326.799,396.027 326.775 C 396.414 326.750,396.512 295.764,396.512 173.214 C 396.512 37.453,396.445 19.710,395.935 19.906 C 395.618 20.028,395.400 19.971,395.450 19.781 C 395.501 19.590,395.194 19.148,394.767 18.797 C 394.341 18.446,394.210 18.270,394.477 18.405 C 394.743 18.540,394.961 18.484,394.961 18.281 C 394.961 18.078,394.700 17.812,394.380 17.689 C 394.060 17.567,393.798 17.656,393.798 17.889 C 393.798 18.187,393.653 18.191,393.306 17.904 C 393.036 17.679,392.033 17.440,391.078 17.372 C 389.944 17.291,389.375 17.080,389.438 16.764 C 389.506 16.424,388.911 16.279,387.448 16.279 C 385.750 16.279,385.327 16.147,385.176 15.567 C 385.028 15.001,384.565 14.840,382.918 14.782 C 381.779 14.742,380.749 14.550,380.629 14.355 C 380.241 13.727,378.361 13.206,376.899 13.321 C 375.831 13.405,375.432 13.271,375.305 12.785 C 375.179 12.303,374.619 12.109,373.130 12.029 C 372.026 11.970,370.844 11.906,370.503 11.886 C 370.161 11.866,369.899 11.582,369.921 11.254 C 369.963 10.628,369.791 10.581,367.151 10.510 C 365.965 10.478,365.504 10.302,365.504 9.884 C 365.504 9.564,365.373 9.323,365.213 9.348 C 363.329 9.646,360.903 9.236,361.125 8.657 C 361.291 8.224,361.223 8.104,360.919 8.293 C 360.669 8.447,360.465 8.388,360.465 8.162 C 360.465 7.937,360.334 7.773,360.174 7.798 C 358.254 8.101,355.884 7.673,355.705 6.991 C 355.574 6.489,355.196 6.243,354.594 6.270 C 352.848 6.348,350.585 6.139,351.068 5.944 C 352.189 5.492,350.945 5.039,348.584 5.039 C 346.391 5.039,346.025 4.937,345.852 4.276 C 345.742 3.856,345.366 3.535,345.016 3.562 C 343.261 3.698,341.065 3.447,341.260 3.132 C 341.527 2.699,339.392 2.018,337.791 2.027 C 335.877 2.037,335.673 1.964,335.906 1.357 C 336.088 0.882,335.729 0.775,333.956 0.775 C 332.761 0.775,331.783 0.601,331.783 0.388 C 331.783 0.158,330.361 0.000,328.294 0.000 L 324.804 0.000 324.812 172.578 " stroke="none" fill="#7ce4dc" fill-rule="evenodd"></path><path id="path1" d="M0.000 172.141 L 0.000 330.620 1.135 330.620 C 1.759 330.620,2.525 330.365,2.837 330.054 C 3.148 329.742,4.076 329.459,4.899 329.425 C 7.038 329.337,7.752 329.096,7.752 328.462 C 7.752 328.048,8.291 327.907,9.880 327.907 C 11.589 327.907,12.104 327.754,12.493 327.132 C 12.886 326.502,13.397 326.357,15.210 326.357 C 16.935 326.357,17.442 326.225,17.442 325.775 C 17.442 325.335,17.919 325.194,19.415 325.194 C 20.910 325.194,21.543 325.007,22.031 324.422 C 22.520 323.836,23.203 323.636,24.883 323.588 C 26.171 323.551,27.060 323.357,27.015 323.123 C 26.973 322.901,27.887 322.576,29.048 322.399 C 30.208 322.222,31.436 321.825,31.778 321.517 C 32.144 321.185,33.324 320.925,34.662 320.881 C 36.499 320.821,36.962 320.672,37.113 320.094 C 37.265 319.512,37.686 319.380,39.386 319.380 C 40.983 319.380,41.473 319.243,41.473 318.798 C 41.473 318.382,41.898 318.217,42.975 318.217 C 45.261 318.217,46.899 317.792,46.899 317.200 C 46.899 316.812,47.481 316.667,49.031 316.667 C 50.203 316.667,51.142 316.536,51.117 316.376 C 50.944 315.280,51.279 315.116,53.694 315.116 C 55.587 315.116,56.282 314.970,56.449 314.535 C 56.609 314.118,57.262 313.953,58.762 313.953 C 60.578 313.953,60.853 313.854,60.853 313.196 C 60.853 312.531,61.171 312.425,63.469 312.324 C 65.012 312.256,66.057 312.044,66.015 311.805 C 65.977 311.583,66.325 311.373,66.790 311.338 C 67.255 311.303,68.028 311.176,68.508 311.056 L 69.380 310.838 69.380 171.892 L 69.380 32.946 67.248 32.946 C 65.612 32.946,65.116 32.811,65.116 32.364 C 65.116 31.903,64.556 31.783,62.403 31.783 C 59.804 31.783,59.469 31.630,59.644 30.523 C 59.669 30.363,58.731 30.233,57.558 30.233 C 55.886 30.233,55.426 30.102,55.426 29.628 C 55.426 29.296,55.252 29.132,55.039 29.264 C 54.826 29.395,54.651 29.318,54.651 29.093 C 54.651 28.855,53.775 28.682,52.567 28.682 C 51.187 28.682,50.319 28.486,50.000 28.101 C 49.703 27.743,48.853 27.519,47.793 27.519 C 46.185 27.519,44.693 26.754,45.238 26.209 C 45.370 26.077,44.490 25.947,43.282 25.921 C 40.514 25.859,40.442 25.848,40.052 25.422 C 39.860 25.213,39.966 25.197,40.310 25.382 C 40.786 25.639,40.803 25.599,40.400 25.166 C 39.935 24.666,39.203 24.523,36.725 24.450 C 36.050 24.430,35.659 24.205,35.659 23.837 C 35.659 23.398,35.185 23.256,33.721 23.256 C 32.300 23.256,31.576 23.049,31.008 22.481 C 30.420 21.893,29.716 21.705,28.101 21.705 C 26.464 21.705,25.969 21.570,25.969 21.124 C 25.969 20.681,25.484 20.543,23.930 20.543 C 22.312 20.543,21.792 20.383,21.408 19.767 C 21.012 19.134,20.504 18.992,18.627 18.992 C 16.653 18.992,16.296 18.881,16.079 18.198 C 15.941 17.761,15.536 17.433,15.181 17.468 C 13.154 17.667,11.628 17.406,11.628 16.860 C 11.628 16.399,11.068 16.279,8.915 16.279 C 6.460 16.279,6.202 16.205,6.202 15.504 C 6.202 14.815,5.943 14.729,3.888 14.729 C 2.084 14.729,1.620 14.611,1.779 14.196 C 1.920 13.829,1.674 13.663,0.992 13.663 L 0.000 13.663 0.000 172.141 M113.857 333.607 C 114.336 333.699,115.121 333.699,115.601 333.607 C 116.080 333.514,115.688 333.439,114.729 333.439 C 113.769 333.439,113.377 333.514,113.857 333.607 " stroke="none" fill="#345cb4" fill-rule="evenodd"></path><path id="path2" d="M279.350 109.465 C 279.047 109.768,277.966 110.090,276.948 110.181 C 275.761 110.287,274.969 110.576,274.739 110.987 C 274.459 111.487,273.788 111.628,271.686 111.628 C 269.251 111.628,268.992 111.702,268.992 112.403 C 268.992 113.104,268.734 113.178,266.298 113.178 C 264.320 113.178,263.519 113.331,263.283 113.753 C 263.077 114.120,262.280 114.354,261.078 114.400 C 259.615 114.455,259.154 114.629,259.010 115.181 C 258.853 115.783,258.417 115.891,256.156 115.891 C 253.747 115.891,253.488 115.967,253.488 116.667 C 253.488 117.368,253.230 117.442,250.794 117.442 C 248.897 117.442,248.009 117.602,247.791 117.982 C 247.605 118.305,246.545 118.609,245.155 118.737 C 243.876 118.855,242.767 118.960,242.691 118.972 C 242.615 118.983,242.652 119.252,242.774 119.569 C 242.896 119.886,242.871 120.127,242.719 120.104 C 240.944 119.840,237.984 120.235,237.984 120.736 C 237.984 121.145,237.553 121.326,236.531 121.345 C 233.979 121.391,232.778 121.656,232.329 122.270 C 232.029 122.680,231.233 122.870,229.802 122.874 C 227.559 122.881,226.483 123.295,226.911 123.988 C 227.095 124.286,226.453 124.419,224.829 124.419 C 220.435 124.419,220.910 114.978,221.024 200.100 L 221.124 274.225 223.256 274.419 C 224.806 274.560,225.388 274.771,225.388 275.194 C 225.388 275.618,225.912 275.806,227.326 275.889 C 228.391 275.951,229.439 276.213,229.653 276.470 C 230.133 277.048,230.679 277.196,233.140 277.417 C 234.244 277.516,235.211 277.825,235.387 278.136 C 235.589 278.490,236.371 278.682,237.616 278.682 C 239.063 278.682,239.535 278.825,239.535 279.264 C 239.535 279.583,239.578 279.856,239.632 279.869 C 239.685 279.882,240.601 279.991,241.667 280.110 C 242.733 280.230,243.949 280.567,244.369 280.861 C 244.790 281.155,246.054 281.395,247.179 281.395 C 249.075 281.395,249.398 281.578,249.293 282.587 C 249.281 282.709,250.089 282.848,251.089 282.895 C 253.557 283.011,254.189 283.124,254.543 283.513 C 254.709 283.696,254.627 283.720,254.360 283.566 C 254.094 283.413,253.876 283.452,253.876 283.653 C 253.876 284.143,255.259 284.484,257.267 284.491 C 258.471 284.495,258.915 284.653,258.915 285.078 C 258.915 285.521,259.400 285.659,260.961 285.659 C 262.563 285.659,263.129 285.827,263.566 286.434 C 264.013 287.054,264.569 287.209,266.345 287.209 C 268.018 287.209,268.656 287.369,268.929 287.858 C 269.160 288.270,269.908 288.553,270.983 288.636 C 271.913 288.708,272.861 289.016,273.088 289.322 C 273.355 289.680,274.356 289.908,275.915 289.964 C 277.242 290.012,278.435 290.223,278.565 290.434 C 278.711 290.671,278.594 290.692,278.258 290.489 C 277.794 290.210,277.792 290.259,278.245 290.817 C 278.623 291.283,279.369 291.473,280.820 291.473 C 282.278 291.473,282.927 291.639,283.086 292.054 C 283.216 292.394,283.797 292.636,284.484 292.636 L 285.659 292.636 285.659 200.775 L 285.659 108.915 282.780 108.915 C 280.809 108.915,279.727 109.088,279.350 109.465 M395.862 327.774 C 396.003 327.915,395.923 328.264,395.686 328.550 C 395.368 328.932,395.369 329.070,395.689 329.070 C 395.928 329.070,396.124 328.997,396.124 328.908 C 396.124 328.819,396.230 328.470,396.359 328.132 C 396.498 327.771,396.392 327.519,396.101 327.519 C 395.829 327.519,395.722 327.634,395.862 327.774 " stroke="none" fill="#04cbd4" fill-rule="evenodd"></path><path id="path3" d="M107.623 154.134 C 107.481 154.276,107.364 195.003,107.364 244.638 L 107.364 334.884 110.078 334.884 C 112.532 334.884,112.791 334.810,112.791 334.109 C 112.791 333.391,113.049 333.333,116.279 333.333 C 119.121 333.333,119.767 333.226,119.767 332.752 C 119.767 332.287,120.345 332.171,122.643 332.171 C 125.856 332.171,126.744 331.952,126.744 331.160 C 126.744 330.739,127.509 330.620,130.233 330.620 C 132.933 330.620,133.721 330.500,133.721 330.087 C 133.721 329.690,134.571 329.510,137.059 329.379 C 139.653 329.243,140.479 329.059,140.761 328.556 C 141.041 328.055,141.688 327.907,143.599 327.907 C 146.273 327.907,148.254 327.368,147.869 326.745 C 147.716 326.498,148.755 326.357,150.725 326.357 C 152.960 326.357,153.982 326.195,154.402 325.775 C 154.795 325.382,155.778 325.192,157.434 325.189 C 160.412 325.182,161.628 324.890,161.628 324.180 C 161.628 323.771,162.315 323.643,164.516 323.643 C 166.802 323.643,167.478 323.510,167.763 323.001 C 168.037 322.510,168.877 322.314,171.303 322.174 C 173.499 322.047,174.545 321.826,174.686 321.460 C 174.798 321.169,175.132 320.930,175.429 320.930 C 175.889 320.930,175.969 309.750,175.969 245.736 L 175.969 170.543 174.466 170.543 C 173.603 170.543,172.758 170.295,172.481 169.961 C 172.156 169.570,171.282 169.380,169.806 169.380 C 168.094 169.380,167.469 169.210,166.950 168.605 C 166.423 167.989,165.807 167.829,163.957 167.829 C 162.676 167.829,161.628 167.683,161.628 167.504 C 161.628 166.924,159.696 166.279,157.960 166.279 C 156.994 166.279,156.200 166.081,156.112 165.818 C 156.021 165.545,154.880 165.287,153.319 165.188 C 151.417 165.067,150.476 164.817,149.952 164.293 C 149.428 163.769,148.664 163.566,147.220 163.566 C 145.962 163.566,144.971 163.344,144.558 162.970 C 144.142 162.594,143.108 162.366,141.742 162.349 C 140.137 162.330,139.412 162.135,138.917 161.588 C 138.419 161.038,137.722 160.853,136.144 160.853 C 134.624 160.853,133.763 160.637,133.052 160.078 C 132.368 159.540,131.479 159.302,130.153 159.302 C 128.969 159.302,128.018 159.081,127.658 158.721 C 127.284 158.347,126.326 158.140,124.972 158.140 C 123.385 158.140,122.678 157.949,122.093 157.364 C 121.490 156.761,120.801 156.589,118.992 156.589 C 117.713 156.589,116.667 156.443,116.667 156.264 C 116.667 155.663,114.708 155.039,112.820 155.039 C 111.629 155.039,110.772 154.827,110.465 154.457 C 109.978 153.870,108.100 153.657,107.623 154.134 " stroke="none" fill="#3c8cfc" fill-rule="evenodd"></path><path id="path4" d="" stroke="none" fill="#5ce8d8" fill-rule="evenodd"></path></g></svg>