<?xml version="1.0" encoding="UTF-8" standalone="no"?>
<svg xmlns:rdf="http://www.w3.org/1999/02/22-rdf-syntax-ns#" xmlns="http://www.w3.org/2000/svg" xml:space="preserve" viewBox="0 0 303.75 125" version="1.1" xmlns:cc="http://creativecommons.org/ns#" xmlns:dc="http://purl.org/dc/elements/1.1/"><g transform="matrix(1.25,0,0,-1.25,0,125)"><g fill="#00468b"><g><path d="m28.699 97.972v-2.381c-6.096-0.51-6.755-1.02-6.755-10.2v-17.937c0-13.515 4.284-21.081 14.004-21.081 9.967 0 14.909 7.821 14.909 22.697v5.1c0 9.691-0.412 14.451-0.742 17.001-0.411 3.06-2.718 4.08-7.989 4.42v2.381h20.098v-2.381c-4.118-0.17-6.26-1.36-6.672-4.42-0.329-2.55-0.741-7.31-0.741-17.001v-6.036c0-8.245-1.483-15.3-6.013-20.315-3.625-4.08-9.473-6.376-15.239-6.376-5.107 0-10.544 1.02-14.663 4.506-4.365 3.655-6.178 9.775-6.178 19.806v19.636c0 9.18-0.659 9.69-7.249 10.2v2.381h23.23"/><path d="m169.27 84.966c-1.675 4.93-4.561 10.88-12.379 10.88-6.144 0-9.495-4.08-9.495-8.925 0-4.761 3.723-7.906 10.89-10.881l2.421-1.02c7.26-2.975 13.962-7.481 13.962-16.32 0-10.117-8.657-17.257-21.223-17.257-3.537 0-6.888 0.68-9.308 1.445-2.606 0.765-4.281 1.445-5.399 1.785-0.744 2.211-1.861 7.99-2.793 13.176l2.793 0.851c1.862-4.421 6.889-13.857 16.475-13.857 6.051 0 9.773 4.335 9.773 9.607 0 4.759-2.512 8.16-9.865 11.475l-2.978 1.36c-6.145 2.89-13.963 7.395-13.963 15.726 0 8.925 7.353 16.235 19.826 16.235 2.513 0 5.864-0.339 8.471-1.189 1.489-0.511 2.792-0.681 3.909-1.106 0.372-2.975 0.93-6.715 1.862-11.476l-2.979-0.509"/><path d="m117.14 83.266c-2.636 9.69-7.826 12.58-15.487 12.58-13.509 0-19.604-11.645-19.604-24.227 0-15.81 7.578-26.776 19.604-26.776 8.897 0 13.015 4.761 17.299 13.771l2.306-0.51c-0.988-4.08-2.801-10.881-4.118-14.111-2.307-0.679-9.72-2.55-15.487-2.55-21.581 0-30.312 14.536-30.312 27.967 0 17.851 13.344 29.836 31.795 29.836 7.084 0 12.521-1.7 14.827-2.21 0.659-4.76 0.989-8.5 1.482-13.431l-2.305-0.339"/></g><g fill="#00468b" clip-path="url(#a)"><path d="m204.84 70.77v-15.131c0-7.99 1.088-9.69 6.887-9.521 5.98 0 12.141 3.145 12.141 11.901 0 8.671-6.705 12.751-15.947 12.751h-3.081zm0 3.06h3.625c7.792 0 12.685 3.4 12.685 10.54 0 7.821-5.89 10.371-11.416 10.371-2.357 0-3.625-0.17-4.169-0.425-0.725-0.34-0.725-1.785-0.725-3.825v-16.661zm7.793 24.142c7.067 0 10.691-0.851 13.954-2.806 3.261-2.04 5.073-5.185 5.073-9.691 0-7.31-7.52-11.22-12.866-12.154v-0.171c9.242-1.02 16.31-5.696 16.31-14.196 0-6.036-3.171-10.03-8.155-12.836-4.259-2.379-10.692-3.4-17.306-3.4h-22.562v2.38c7.068 0.511 7.792 1.19 7.792 10.371v29.752c0 9.18-0.724 9.86-7.248 10.37v2.381h25.008"/><path d="m150.38 22.59c-18.099 16-66 6.5-84.2-0.899-25.2-9.601-48.7-23.201-65.7-12.3-0.1 0.1-0.3 0.1-0.3 0.1 0-0.1 0-0.3 0.1-0.401 18.8-15.9 65.7-7.199 83.7 0.5 25.3 9.7 49.4 23.5 66.2 12.601 0.101 0 0.3 0 0.3 0.099 0 0 0 0.101-0.1 0.3"/><path d="m150.38 22.59c-18.099 16-66 6.5-84.2-0.899-25.2-9.601-48.7-23.201-65.7-12.3-0.1 0.1-0.3 0.1-0.3 0.1 0-0.1 0-0.3 0.1-0.401 18.8-15.9 65.7-7.199 83.7 0.5 25.3 9.7 49.4 23.5 66.2 12.601 0.101 0 0.3 0 0.3 0.099 0 0 0 0.101-0.1 0.3z"/><path d="m242.28 22.59c-17.901 16-65.801 6.5-84.101-0.899-25.1-9.601-48.6-23.201-65.6-12.3-0.1 0.1-0.3 0.1-0.4 0.1 0-0.1 0-0.3 0.2-0.401 18.8-15.9 65.6-7.199 83.6 0.5 25.301 9.7 49.4 23.5 66.2 12.601 0.101 0 0.3 0 0.3 0.099 0 0 0 0.101-0.199 0.3"/><path d="m242.28 22.59c-17.901 16-65.801 6.5-84.101-0.899-25.1-9.601-48.6-23.201-65.6-12.3-0.1 0.1-0.3 0.1-0.4 0.1 0-0.1 0-0.3 0.2-0.401 18.8-15.9 65.6-7.199 83.6 0.5 25.301 9.7 49.4 23.5 66.2 12.601 0.101 0 0.3 0 0.3 0.099 0 0 0 0.101-0.199 0.3z"/></g></g></g></svg>
